{
    "accessors": {
        "accessor_21": {
            "bufferView": "bufferView_86",
            "byteOffset": 360,
            "byteStride": 2,
            "componentType": 5123,
            "count": 180,
            "max": [
                89
            ],
            "min": [
                0
            ],
            "type": "SCALAR"
        },
        "accessor_23": {
            "bufferView": "bufferView_87",
            "byteOffset": 4320,
            "byteStride": 12,
            "componentType": 5126,
            "count": 180,
            "max": [
                0.00540495,
                0.286368,
                0.00540495
            ],
            "min": [
                -0.00540495,
                -0.0002556,
                -0.00540495
            ],
            "type": "VEC3"
        },
        "accessor_25": {
            "bufferView": "bufferView_87",
            "byteOffset": 6480,
            "byteStride": 12,
            "componentType": 5126,
            "count": 180,
            "max": [
                0.999987,
                1,
                0.999987
            ],
            "min": [
                -0.999987,
                0.005011,
                -0.999987
            ],
            "type": "VEC3"
        },
        "accessor_48": {
            "bufferView": "bufferView_86",
            "byteOffset": 0,
            "byteStride": 2,
            "componentType": 5123,
            "count": 180,
            "max": [
                89
            ],
            "min": [
                0
            ],
            "type": "SCALAR"
        },
        "accessor_50": {
            "bufferView": "bufferView_87",
            "byteOffset": 0,
            "byteStride": 12,
            "componentType": 5126,
            "count": 180,
            "max": [
                0.00586912,
                0.298546,
                0.0181858
            ],
            "min": [
                -0.00586912,
                0.285665,
                -0.0212579
            ],
            "type": "VEC3"
        },
        "accessor_52": {
            "bufferView": "bufferView_87",
            "byteOffset": 2160,
            "byteStride": 12,
            "componentType": 5126,
            "count": 180,
            "max": [
                0.998039,
                0.995564,
                1
            ],
            "min": [
                -0.99867,
                -0.999039,
                -0.995174
            ],
            "type": "VEC3"
        },
        "accessor_75": {
            "bufferView": "bufferView_86",
            "byteOffset": 720,
            "byteStride": 2,
            "componentType": 5123,
            "count": 972,
            "max": [
                485
            ],
            "min": [
                0
            ],
            "type": "SCALAR"
        },
        "accessor_77": {
            "bufferView": "bufferView_87",
            "byteOffset": 8640,
            "byteStride": 12,
            "componentType": 5126,
            "count": 972,
            "max": [
                0.127983,
                0.438845,
                0.0319689
            ],
            "min": [
                -0.126779,
                0.216693,
                0.018175
            ],
            "type": "VEC3"
        },
        "accessor_79": {
            "bufferView": "bufferView_87",
            "byteOffset": 20304,
            "byteStride": 12,
            "componentType": 5126,
            "count": 972,
            "max": [
                1,
                1,
                1
            ],
            "min": [
                -1,
                -1,
                -0.995045
            ],
            "type": "VEC3"
        },
        "animAccessor_0": {
            "bufferView": "bufferView_85",
            "byteOffset": 0,
            "byteStride": 4,
            "componentType": 5126,
            "count": 200,
            "max": [
                8.33333
            ],
            "min": [
                0.041667
            ],
            "type": "SCALAR"
        }
    },
    "animations": {
        "animation_0": {
            "channels": [],
            "parameters": {
                "TIME": "animAccessor_0"
            },
            "samplers": {}
        }
    },
    "asset": {
        "generator": "collada2gltf@c5ff32b2d555d43b96ab703fdf0b6695d29fc7d3",
        "premultipliedAlpha": true,
        "profile": {
            "api": "WebGL",
            "version": "1.0.2"
        },
        "version": "1.0.1"
    },
    "bufferViews": {
        "bufferView_85": {
            "buffer": "WindTurbine",
            "byteLength": 800,
            "byteOffset": 0
        },
        "bufferView_86": {
            "buffer": "WindTurbine",
            "byteLength": 2664,
            "byteOffset": 800,
            "target": 34963
        },
        "bufferView_87": {
            "buffer": "WindTurbine",
            "byteLength": 31968,
            "byteOffset": 3464,
            "target": 34962
        }
    },
    "buffers": {
        "WindTurbine": {
            "byteLength": 35432,
            "type": "arraybuffer",
            "uri": "data:application/octet-stream;base64,"
        }
    },
    "materials": {
        "WTurbine_tex-fx": {
            "name": "WTurbine_tex",
            "technique": "technique1",
            "values": {
                "ambient": [
                    0,
                    0,
                    0,
                    1
                ],
                "diffuse": [
                    0.773984,
                    0.773984,
                    0.773984,
                    1
                ],
                "emission": [
                    0,
                    0,
                    0,
                    1
                ],
                "shininess": 3.62834,
                "specular": [
                    0.398374,
                    0.398374,
                    0.398374,
                    1
                ],
                "transparency": 0
            }
        }
    },
    "meshes": {
        "pCube1-lib": {
            "name": "pCube1Mesh",
            "primitives": [
                {
                    "attributes": {
                        "NORMAL": "accessor_52",
                        "POSITION": "accessor_50"
                    },
                    "indices": "accessor_48",
                    "material": "WTurbine_tex-fx",
                    "mode": 4
                }
            ]
        },
        "pCylinder1-lib": {
            "name": "pCylinder1Mesh",
            "primitives": [
                {
                    "attributes": {
                        "NORMAL": "accessor_25",
                        "POSITION": "accessor_23"
                    },
                    "indices": "accessor_21",
                    "material": "WTurbine_tex-fx",
                    "mode": 4
                }
            ]
        },
        "pCylinder3-lib": {
            "name": "pCylinder3Mesh",
            "primitives": [
                {
                    "attributes": {
                        "NORMAL": "accessor_79",
                        "POSITION": "accessor_77"
                    },
                    "indices": "accessor_75",
                    "material": "WTurbine_tex-fx",
                    "mode": 4
                }
            ]
        }
    },
    "nodes": {
        "pCube1": {
            "children": [],
            "meshes": [
                "pCube1-lib"
            ],
            "name": "pCube1"
        },
        "pCube2": {
            "children": [
                "transform2"
            ],
            "name": "pCube2"
        },
        "pCube3": {
            "children": [
                "transform1"
            ],
            "matrix": [
                -0.5,
                0.866025,
                0,
                0,
                -0.866025,
                -0.5,
                0,
                0,
                0,
                0,
                1,
                0,
                0.252914,
                0.438368,
                -0.00153603,
                1
            ],
            "name": "pCube3"
        },
        "pCube4": {
            "children": [
                "transform3"
            ],
            "matrix": [
                -0.5,
                -0.866025,
                0,
                0,
                0.866025,
                -0.5,
                0,
                0,
                0,
                0,
                1,
                0,
                -0.253181,
                0.438215,
                -0.00153603,
                1
            ],
            "name": "pCube4"
        },
        "pCylinder1": {
            "children": [],
            "meshes": [
                "pCylinder1-lib"
            ],
            "name": "pCylinder1"
        },
        "pCylinder2": {
            "children": [
                "transform4"
            ],
            "name": "pCylinder2"
        },
        "pCylinder3": {
            "children": [],
            "meshes": [
                "pCylinder3-lib"
            ],
            "name": "pCylinder3",
            "rotation": [
                0,
                0,
                0,
                1
            ],
            "scale": [
                1,
                1,
                1
            ],
            "translation": [
                0,
                0,
                0
            ]
        },
        "transform1": {
            "children": [],
            "name": "transform1"
        },
        "transform2": {
            "children": [],
            "name": "transform2"
        },
        "transform3": {
            "children": [],
            "name": "transform3"
        },
        "transform4": {
            "children": [],
            "name": "transform4"
        }
    },
    "programs": {
        "program_0": {
            "attributes": [
                "a_normal",
                "a_position"
            ],
            "fragmentShader": "WindTurbine0FS",
            "vertexShader": "WindTurbine0VS"
        }
    },
    "scene": "defaultScene",
    "scenes": {
        "defaultScene": {
            "nodes": [
                "pCylinder1",
                "pCube1",
                "pCylinder2",
                "pCube2",
                "pCube3",
                "pCube4",
                "pCylinder3"
            ]
        }
    },
    "shaders": {
        "WindTurbine0FS": {
            "type": 35632,
            "uri": "data:text/plain;base64,"
        },
        "WindTurbine0VS": {
            "type": 35633,
            "uri": "data:text/plain;base64,"
        }
    },
    "skins": {},
    "techniques": {
        "technique1": {
            "attributes": {
                "a_normal": "normal",
                "a_position": "position"
            },
            "parameters": {
                "ambient": {
                    "type": 35666
                },
                "diffuse": {
                    "type": 35666
                },
                "emission": {
                    "type": 35666
                },
                "modelViewMatrix": {
                    "semantic": "MODELVIEW",
                    "type": 35676
                },
                "normal": {
                    "semantic": "NORMAL",
                    "type": 35665
                },
                "normalMatrix": {
                    "semantic": "MODELVIEWINVERSETRANSPOSE",
                    "type": 35675
                },
                "position": {
                    "semantic": "POSITION",
                    "type": 35665
                },
                "projectionMatrix": {
                    "semantic": "PROJECTION",
                    "type": 35676
                },
                "shininess": {
                    "type": 5126
                },
                "specular": {
                    "type": 35666
                },
                "transparency": {
                    "type": 5126
                }
            },
            "program": "program_0",
            "states": {
                "enable": [
                    2929,
                    3042
                ],
                "functions": {
                    "blendEquationSeparate": [
                        32774,
                        32774
                    ],
                    "blendFuncSeparate": [
                        1,
                        771,
                        1,
                        771
                    ],
                    "depthMask": [
                        false
                    ]
                }
            },
            "uniforms": {
                "u_ambient": "ambient",
                "u_diffuse": "diffuse",
                "u_emission": "emission",
                "u_modelViewMatrix": "modelViewMatrix",
                "u_normalMatrix": "normalMatrix",
                "u_projectionMatrix": "projectionMatrix",
                "u_shininess": "shininess",
                "u_specular": "specular",
                "u_transparency": "transparency"
            }
        }
    }
}